<svg width="1200" height="630" viewBox="0 0 1200 630" xmlns="http://www.w3.org/2000/svg">
  <rect width="1200" height="630" fill="#0a0a0a"/>
  <line x1="0" y1="210" x2="1200" y2="210" stroke="#1a1a1a" stroke-width="1"/>
  <line x1="0" y1="420" x2="1200" y2="420" stroke="#1a1a1a" stroke-width="1"/>
  <line x1="400" y1="0" x2="400" y2="630" stroke="#1a1a1a" stroke-width="1"/>
  <line x1="800" y1="0" x2="800" y2="630" stroke="#1a1a1a" stroke-width="1"/>
  <rect x="0" y="0" width="4" height="630" fill="#f0f0f0"/>
  <text x="80" y="220" font-family="'Space Grotesk', system-ui, sans-serif" font-size="96" font-weight="700" fill="#f0f0f0" letter-spacing="-4">Rishi Pandey</text>
  <text x="80" y="310" font-family="'Inter', system-ui, sans-serif" font-size="36" font-weight="400" fill="#888888" letter-spacing="-0.5">Python Developer · AI Agents · RAG · Backend</text>
  <line x1="80" y1="360" x2="480" y2="360" stroke="#333333" stroke-width="1.5"/>
  <rect x="80" y="390" width="130" height="44" rx="22" fill="none" stroke="#333333" stroke-width="1.5"/>
  <text x="145" y="418" font-family="'Inter', system-ui, sans-serif" font-size="18" font-weight="500" fill="#888888" text-anchor="middle">FastAPI</text>
  <rect x="228" y="390" width="130" height="44" rx="22" fill="none" stroke="#333333" stroke-width="1.5"/>
  <text x="293" y="418" font-family="'Inter', system-ui, sans-serif" font-size="18" font-weight="500" fill="#888888" text-anchor="middle">LangChain</text>
  <rect x="376" y="390" width="130" height="44" rx="22" fill="none" stroke="#333333" stroke-width="1.5"/>
  <text x="441" y="418" font-family="'Inter', system-ui, sans-serif" font-size="18" font-weight="500" fill="#888888" text-anchor="middle">PostgreSQL</text>
  <rect x="524" y="390" width="130" height="44" rx="22" fill="none" stroke="#333333" stroke-width="1.5"/>
  <text x="589" y="418" font-family="'Inter', system-ui, sans-serif" font-size="18" font-weight="500" fill="#888888" text-anchor="middle">Docker</text>
  <text x="80" y="560" font-family="'Inter', system-ui, sans-serif" font-size="22" font-weight="400" fill="#444444">rishipandey.dev</text>
  <text x="1120" y="580" font-family="'Space Grotesk', system-ui, sans-serif" font-size="180" font-weight="700" fill="#111111" text-anchor="end" letter-spacing="-8">RP</text>
</svg>
